<?xml version="1.0" encoding="UTF-8" ?>
<!DOCTYPE svg PUBLIC "-//W3C//DTD SVG 1.1//EN" "http://www.w3.org/Graphics/SVG/1.1/DTD/svg11.dtd">
<svg width="1000pt" height="318pt" viewBox="0 0 1000 318" version="1.1" xmlns="http://www.w3.org/2000/svg">
<g id="#fefefeff">
</g>
<g id="#01b9ffff">
<path fill="#01b9ff" opacity="1.00" d=" M 45.96 20.64 C 56.29 20.04 67.19 18.90 76.94 23.17 C 77.93 23.51 78.92 23.84 79.91 24.16 C 96.62 31.08 109.61 46.39 113.56 64.06 C 114.18 69.05 115.56 73.98 115.45 79.03 C 114.89 85.89 113.22 92.57 111.26 99.14 C 106.61 110.19 98.84 119.99 88.72 126.49 C 81.93 131.14 73.94 133.52 65.98 135.20 C 52.11 136.92 37.70 133.82 26.03 126.06 C 14.85 118.65 6.70 107.09 2.75 94.34 C 1.66 90.58 1.17 86.70 1.17 82.79 C 1.16 75.46 0.64 67.97 2.76 60.85 C 7.63 45.03 19.26 31.25 34.57 24.69 C 38.20 22.88 42.23 22.20 45.96 20.64 Z" />
</g>
<g id="#01ffafff">
<path fill="#01ffaf" opacity="1.00" d=" M 174.58 23.78 C 180.35 22.32 185.95 19.75 192.03 19.98 C 197.38 20.30 202.76 19.99 208.08 20.71 C 213.57 22.56 219.40 23.64 224.30 26.92 C 237.00 34.00 246.87 46.01 251.13 59.92 C 251.55 60.90 251.95 61.90 252.32 62.90 C 253.13 73.61 254.27 84.71 251.28 95.18 C 245.84 112.70 231.60 127.53 213.94 132.83 C 189.51 141.39 160.04 130.17 147.40 107.56 C 137.97 92.32 137.04 72.70 143.14 56.06 C 146.26 49.02 150.12 42.10 155.96 36.94 C 160.41 31.89 166.02 27.95 172.21 25.32 C 173.00 24.81 173.79 24.29 174.58 23.78 Z" />
</g>
<g id="#010101ff">
<path fill="#010101" opacity="1.00" d=" M 269.84 81.00 C 272.89 80.99 275.94 80.99 278.99 81.01 C 279.01 89.34 278.98 97.67 279.02 106.00 C 282.87 102.08 286.62 98.08 290.43 94.13 C 294.03 93.44 297.78 93.97 301.45 93.85 C 297.04 97.71 293.10 102.05 288.82 106.04 C 293.39 113.15 298.18 120.13 302.84 127.19 C 299.20 127.16 295.56 127.18 291.93 127.15 C 288.82 122.13 285.76 117.08 282.63 112.07 C 281.43 113.33 280.03 114.43 279.08 115.89 C 278.82 119.64 279.08 123.40 279.00 127.15 C 275.94 127.17 272.88 127.16 269.82 127.18 C 269.84 111.78 269.81 96.39 269.84 81.00 Z" />
<path fill="#010101" opacity="1.00" d=" M 306.63 80.99 C 309.62 81.00 312.61 80.99 315.61 81.01 C 315.61 83.47 315.59 85.92 315.59 88.38 C 312.60 88.36 309.62 88.36 306.63 88.35 C 306.64 85.90 306.64 83.44 306.63 80.99 Z" />
<path fill="#010101" opacity="1.00" d=" M 323.41 81.01 C 326.39 81.02 329.38 81.02 332.37 80.96 C 332.35 83.44 332.35 85.92 332.36 88.39 C 329.37 88.35 326.39 88.35 323.40 88.38 C 323.41 85.92 323.41 83.47 323.41 81.01 Z" />
<path fill="#010101" opacity="1.00" d=" M 342.41 83.83 C 345.39 83.84 348.37 83.86 351.36 83.80 C 351.36 87.13 351.35 90.46 351.34 93.79 C 353.61 93.83 355.89 93.85 358.18 93.82 C 358.16 95.88 358.14 97.94 358.13 100.00 C 355.87 100.00 353.61 100.01 351.36 100.01 C 351.48 106.20 351.12 112.41 351.52 118.59 C 352.40 121.31 356.08 120.27 358.24 120.48 C 358.20 122.74 358.16 125.00 358.12 127.27 C 353.83 127.32 349.02 128.22 345.19 125.76 C 343.23 124.57 342.35 122.23 342.41 120.02 C 342.37 113.34 342.40 106.66 342.41 99.98 C 340.55 99.98 338.69 99.99 336.84 100.00 C 336.84 97.94 336.84 95.88 336.82 93.82 C 338.68 93.84 340.54 93.84 342.41 93.83 C 342.40 90.49 342.38 87.16 342.41 83.83 Z" />
<path fill="#010101" opacity="1.00" d=" M 306.62 93.83 C 309.62 93.84 312.63 93.82 315.63 93.88 C 315.54 104.98 315.63 116.09 315.58 127.20 C 312.59 127.17 309.61 127.16 306.63 127.16 C 306.64 116.05 306.63 104.94 306.62 93.83 Z" />
<path fill="#010101" opacity="1.00" d=" M 323.45 127.22 C 323.35 116.08 323.39 104.94 323.42 93.80 C 326.39 93.86 329.37 93.85 332.35 93.83 C 332.40 104.95 332.32 116.07 332.38 127.19 C 329.40 127.14 326.42 127.14 323.45 127.22 Z" />
<path fill="#010101" opacity="1.00" d=" M 863.39 111.38 C 870.47 111.41 877.55 111.43 884.63 111.37 C 884.57 117.25 884.63 123.13 884.59 129.01 C 877.52 128.98 870.46 129.03 863.40 128.98 C 863.41 123.11 863.42 117.24 863.39 111.38 Z" />
<path fill="#010101" opacity="1.00" d=" M 906.98 117.63 C 914.19 117.64 921.39 117.68 928.60 117.61 C 928.57 125.34 928.62 133.07 928.57 140.79 C 933.77 140.85 938.96 140.83 944.16 140.83 C 944.17 145.61 944.17 150.39 944.16 155.17 C 938.96 155.17 933.76 155.14 928.57 155.22 C 928.65 168.49 928.54 181.75 928.62 195.01 C 928.79 197.30 929.06 200.21 931.36 201.40 C 935.42 203.10 939.96 202.69 944.16 201.81 C 944.19 207.35 944.12 212.90 944.22 218.44 C 938.61 219.67 932.76 219.41 927.05 219.17 C 921.56 218.75 915.79 217.32 911.69 213.43 C 908.12 209.95 907.19 204.78 907.01 200.00 C 906.97 185.06 907.04 170.12 906.98 155.17 C 902.78 155.14 898.59 155.17 894.40 155.16 C 894.38 150.39 894.38 145.61 894.40 140.84 C 898.59 140.83 902.78 140.86 906.97 140.83 C 907.02 133.09 907.00 125.36 906.98 117.63 Z" />
<path fill="#010101" opacity="1.00" d=" M 285.76 145.74 C 295.22 138.89 307.77 137.39 319.00 139.82 C 328.22 141.71 336.01 148.15 340.75 156.13 C 345.94 164.74 347.62 175.08 346.99 185.00 C 328.30 185.00 309.60 185.00 290.91 185.01 C 291.08 191.40 293.28 198.45 299.10 201.86 C 308.23 207.04 322.31 204.53 326.87 194.40 C 333.15 194.43 339.42 194.35 345.69 194.42 C 342.99 202.03 338.84 209.44 332.07 214.13 C 322.85 220.71 310.77 221.44 299.90 219.76 C 289.21 217.95 279.66 211.01 274.53 201.48 C 269.67 192.87 269.02 182.67 269.86 173.02 C 271.17 162.26 276.92 152.08 285.76 145.74 M 297.96 157.87 C 293.61 160.94 291.11 166.14 290.83 171.40 C 302.42 171.35 314.02 171.53 325.62 171.32 C 324.29 164.94 321.21 157.90 314.50 155.72 C 309.05 154.38 302.69 154.48 297.96 157.87 Z" />
<path fill="#010101" opacity="1.00" d=" M 424.94 146.82 C 430.48 141.34 438.52 139.75 445.99 138.96 C 456.32 138.42 467.48 138.65 476.49 144.40 C 483.06 148.49 486.26 156.19 486.88 163.65 C 480.12 163.53 473.36 163.63 466.59 163.62 C 466.10 160.66 465.14 157.44 462.53 155.67 C 458.01 152.70 452.33 152.86 447.18 153.42 C 443.82 153.85 439.91 156.10 440.12 159.96 C 439.82 164.04 443.95 166.53 447.32 167.68 C 457.20 170.62 467.71 171.58 477.15 175.94 C 482.13 178.24 486.77 182.26 488.14 187.76 C 490.54 196.73 487.69 207.37 480.11 213.07 C 472.22 219.22 461.79 220.73 452.06 220.50 C 442.12 220.41 431.42 218.11 424.12 210.91 C 419.22 206.34 417.11 199.56 416.78 193.02 C 423.51 193.01 430.23 192.99 436.96 193.00 C 437.40 196.31 438.32 199.82 440.95 202.09 C 445.53 206.30 452.34 206.75 458.20 205.77 C 462.95 205.15 467.78 201.35 467.60 196.20 C 467.30 192.59 464.02 190.35 460.94 189.13 C 450.68 184.97 439.19 184.79 429.20 179.86 C 424.19 177.27 419.69 172.79 418.93 166.98 C 418.00 159.88 419.55 151.89 424.94 146.82 Z" />
<path fill="#010101" opacity="1.00" d=" M 629.46 139.22 C 636.55 138.19 644.25 138.67 650.45 142.59 C 653.82 144.64 656.18 147.94 657.89 151.44 C 662.76 144.09 671.00 138.78 679.97 138.82 C 688.53 138.40 698.09 140.18 703.94 146.98 C 709.20 153.01 709.71 161.36 710.00 168.98 C 710.03 185.44 709.95 201.91 710.03 218.37 C 702.81 218.34 695.59 218.38 688.38 218.35 C 688.44 202.89 688.41 187.44 688.39 171.98 C 687.98 167.19 688.03 161.47 684.01 158.09 C 679.78 155.08 673.84 154.84 669.13 156.84 C 663.42 159.37 661.56 166.19 661.22 171.91 C 661.08 187.40 661.23 202.88 661.14 218.37 C 653.98 218.35 646.81 218.35 639.65 218.37 C 639.62 202.22 639.66 186.07 639.64 169.92 C 639.40 165.63 639.05 160.50 635.17 157.82 C 629.59 154.19 621.51 154.98 616.97 159.95 C 613.57 163.37 612.56 168.37 612.36 173.02 C 612.37 188.14 612.34 203.25 612.39 218.37 C 605.25 218.34 598.12 218.35 590.99 218.37 C 590.99 192.53 591.03 166.68 590.97 140.84 C 597.72 140.84 604.46 140.83 611.21 140.84 C 611.12 144.40 611.17 147.97 611.20 151.53 C 615.49 145.36 621.94 140.51 629.46 139.22 Z" />
<path fill="#010101" opacity="1.00" d=" M 765.42 139.25 C 773.14 138.12 781.92 138.65 788.19 143.83 C 790.77 145.83 792.60 148.59 794.07 151.47 C 798.84 144.13 807.03 138.78 815.96 138.83 C 824.32 138.44 833.64 140.02 839.60 146.41 C 845.13 152.46 846.09 161.14 846.01 169.00 C 846.01 185.46 845.97 201.91 846.03 218.37 C 838.90 218.35 831.76 218.34 824.63 218.39 C 824.62 203.03 824.72 187.68 824.58 172.33 C 824.15 167.78 824.27 162.58 821.06 158.97 C 814.99 153.24 803.17 154.70 799.58 162.60 C 796.97 167.98 797.16 174.12 797.16 179.95 C 797.16 192.75 797.19 205.56 797.14 218.37 C 790.04 218.34 782.93 218.36 775.83 218.36 C 775.81 202.56 775.87 186.76 775.80 170.96 C 775.66 166.31 775.37 160.73 771.20 157.77 C 766.35 154.78 759.59 154.71 755.00 158.27 C 750.76 161.44 748.66 166.76 748.59 171.95 C 748.62 187.42 748.59 202.90 748.61 218.38 C 741.40 218.34 734.20 218.35 726.99 218.37 C 726.99 192.53 727.03 166.68 726.97 140.84 C 733.77 140.82 740.57 140.87 747.37 140.81 C 747.38 144.28 747.35 147.75 747.31 151.23 C 751.90 145.47 757.97 140.53 765.42 139.25 Z" />
<path fill="#010101" opacity="1.00" d=" M 501.36 140.88 C 508.44 140.81 515.52 140.84 522.60 140.86 C 522.59 155.26 522.59 169.65 522.60 184.05 C 522.91 190.12 523.23 197.38 528.55 201.38 C 535.55 206.01 547.22 203.83 550.55 195.61 C 552.50 191.03 552.91 185.98 552.85 181.05 C 552.83 167.64 552.83 154.23 552.85 140.82 C 559.95 140.84 567.05 140.84 574.15 140.83 C 574.17 166.68 574.17 192.53 574.15 218.38 C 567.38 218.35 560.62 218.35 553.85 218.38 C 553.85 214.74 553.79 211.10 553.92 207.46 C 549.31 214.62 541.66 220.03 532.96 220.38 C 523.79 221.04 513.08 219.59 507.06 211.84 C 502.71 205.89 501.54 198.24 501.41 191.03 C 501.36 174.32 501.47 157.60 501.36 140.88 Z" />
<path fill="#010101" opacity="1.00" d=" M 863.40 218.39 C 863.42 192.53 863.40 166.66 863.41 140.80 C 870.47 140.87 877.52 140.85 884.59 140.81 C 884.63 166.67 884.59 192.52 884.61 218.38 C 877.54 218.35 870.47 218.33 863.40 218.39 Z" />
<path fill="#010101" opacity="1.00" d=" M 359.39 168.36 C 374.48 168.45 389.56 168.43 404.64 168.36 C 404.55 174.44 404.61 180.52 404.62 186.60 C 389.54 186.58 374.46 186.59 359.38 186.59 C 359.42 180.51 359.40 174.43 359.39 168.36 Z" />
<path fill="#010101" opacity="1.00" d=" M 806.27 243.40 C 812.58 235.37 826.72 236.07 832.34 244.55 C 836.15 250.66 834.45 259.45 828.63 263.71 C 823.39 267.77 817.33 270.83 813.02 275.99 C 820.22 276.02 827.42 275.96 834.62 276.01 C 834.59 278.67 834.57 281.33 834.60 283.99 C 823.53 284.02 812.46 284.01 801.39 283.99 C 801.66 279.87 802.60 275.63 805.35 272.41 C 809.96 266.86 816.70 263.77 822.18 259.22 C 825.23 256.68 826.50 251.92 824.20 248.47 C 822.15 245.09 817.12 244.71 814.13 247.01 C 811.89 249.43 811.13 252.79 811.05 256.00 C 808.23 256.00 805.41 256.00 802.60 255.99 C 802.35 251.53 803.42 246.91 806.27 243.40 Z" />
<path fill="#010101" opacity="1.00" d=" M 848.45 238.78 C 854.01 236.82 860.74 237.75 865.10 241.87 C 868.04 244.85 869.47 248.98 870.21 253.02 C 871.47 260.97 871.32 269.54 867.86 276.95 C 863.17 287.14 846.50 287.60 841.16 277.81 C 837.40 270.88 837.35 262.64 838.03 254.97 C 838.81 248.47 841.73 241.06 848.45 238.78 M 852.53 245.35 C 849.13 246.55 847.85 250.29 847.31 253.53 C 846.41 259.91 846.21 266.64 848.17 272.84 C 849.23 276.80 854.15 278.84 857.62 276.53 C 860.87 274.17 861.44 269.78 861.72 266.07 C 861.92 260.38 862.27 254.35 859.86 249.04 C 858.68 246.27 855.48 244.49 852.53 245.35 Z" />
<path fill="#010101" opacity="1.00" d=" M 913.93 242.82 C 920.62 235.73 934.19 235.95 939.76 244.31 C 943.29 249.50 941.11 257.46 935.03 259.57 C 943.64 261.39 945.91 273.15 940.30 279.19 C 932.99 287.01 918.36 286.88 911.57 278.44 C 909.08 275.25 909.00 270.82 909.75 267.02 C 910.76 263.11 914.28 260.61 917.94 259.41 C 910.47 258.04 909.03 247.66 913.93 242.82 M 919.50 252.88 C 921.85 259.19 933.09 258.15 933.58 251.03 C 933.08 247.66 930.78 244.32 927.00 244.57 C 922.45 243.86 917.97 248.29 919.50 252.88 M 922.47 263.66 C 919.71 264.85 917.91 267.81 918.27 270.83 C 918.24 275.27 922.83 278.62 927.08 278.02 C 932.28 278.17 935.97 271.97 933.69 267.40 C 931.97 263.11 926.41 262.07 922.47 263.66 Z" />
<path fill="#010101" opacity="1.00" d=" M 890.61 238.78 C 892.92 238.85 895.24 238.84 897.56 238.82 C 897.63 253.88 897.61 268.94 897.57 284.00 C 894.58 284.01 891.59 284.01 888.61 283.94 C 888.67 274.09 888.64 264.24 888.64 254.40 C 884.74 254.34 880.85 254.33 876.97 254.37 C 876.97 252.23 876.98 250.09 877.00 247.96 C 880.47 247.62 884.36 247.57 887.13 245.10 C 889.18 243.60 889.87 241.07 890.61 238.78 Z" />
</g>
<g id="#a09ea1ff">
<path fill="#a09ea1" opacity="1.00" d=" M 43.07 161.59 C 53.78 158.55 65.22 160.04 75.59 163.71 C 78.49 164.95 81.63 165.93 83.99 168.11 C 77.31 165.05 70.61 161.26 63.03 161.31 C 54.93 161.41 46.35 160.08 38.69 163.43 C 38.64 163.26 38.53 162.92 38.48 162.75 C 38.52 162.47 38.60 161.91 38.65 161.63 C 40.14 162.11 41.61 162.09 43.07 161.59 Z" />
<path fill="#a09ea1" opacity="1.00" d=" M 185.53 160.94 C 196.72 159.51 208.58 160.23 218.80 165.38 C 234.19 172.40 245.80 186.92 249.76 203.29 C 254.70 222.85 248.11 244.68 233.41 258.43 C 225.23 265.77 215.03 271.10 204.13 272.77 C 195.57 273.01 186.62 273.94 178.44 270.79 C 158.72 264.96 143.56 247.09 140.01 226.96 C 138.50 215.66 139.17 203.66 144.27 193.28 C 151.50 176.53 167.58 164.05 185.53 160.94 Z" />
</g>
<g id="#ff3f3eff">
<path fill="#ff3f3e" opacity="1.00" d=" M 38.69 163.43 C 46.35 160.08 54.93 161.41 63.03 161.31 C 70.61 161.26 77.31 165.05 83.99 168.11 C 94.10 173.99 102.47 183.20 106.84 194.10 C 107.61 196.03 108.40 197.95 109.19 199.87 C 111.26 207.75 112.14 215.93 111.22 224.05 C 110.52 225.62 110.51 227.35 110.30 229.03 C 106.35 247.74 92.24 263.90 74.13 270.19 C 64.50 273.78 54.00 273.54 43.93 272.30 C 33.11 269.52 22.83 264.14 15.15 255.92 C 7.14 246.89 0.50 235.48 1.03 223.03 C 1.37 214.41 -0.17 205.34 3.19 197.13 C 7.79 184.65 16.86 173.75 28.54 167.30 C 31.65 165.32 35.40 164.66 38.37 162.43 L 38.48 162.75 C 38.53 162.92 38.64 163.26 38.69 163.43 Z" />
</g>
</svg>
