<?xml version="1.0" encoding="iso-8859-1"?>
<!-- Generator: Adobe Illustrator 19.0.0, SVG Export Plug-In . SVG Version: 6.00 Build 0)  -->
<svg version="1.1" id="Capa_1" xmlns="http://www.w3.org/2000/svg" xmlns:xlink="http://www.w3.org/1999/xlink" x="0px" y="0px"
	 viewBox="0 0 512 512" style="enable-background:new 0 0 512 512;" xml:space="preserve">
<path style="fill:#57555C;" d="M466,0H166c-24.901,0-45,20.099-45,45v301c0,24.899,20.099,45,45,45h300c24.901,0,46-20.101,46-45V45
	C512,20.099,490.901,0,466,0z"/>
<path style="fill:#3C3A41;" d="M512,45v301c0,24.899-21.099,45-46,45H316V0h150C490.901,0,512,20.099,512,45z"/>
<path style="fill:#FD3018;" d="M406,331c-24.814,0-45-20.186-45-45s20.186-45,45-45s45,20.186,45,45S430.814,331,406,331z"/>
<path style="fill:#FD4E26;" d="M226,151c-0.234,0-0.483,0-0.718,0c-24.814-0.425-44.678-20.933-44.282-45.718
	c0.41-24.829,19.819-44.385,45.718-44.282h0.015c24.8,0.425,44.663,20.933,44.268,45.718C270.59,131.298,250.463,151,226,151z"/>
<path style="fill:#FD3018;" d="M406,151c-0.234,0-0.483,0-0.718,0c-24.814-0.425-44.678-20.933-44.282-45.718
	c0.41-24.829,20.42-44.385,45.718-44.282h0.015c24.8,0.425,44.663,20.933,44.268,45.718C450.59,131.298,430.463,151,406,151z"/>
<path style="fill:#CAE8F9;" d="M346,121H45c-24.901,0-45,20.099-45,45v300c0,24.899,20.099,46,45,46h301c24.901,0,45-21.101,45-46
	V166C391,141.099,370.901,121,346,121z"/>
<path style="fill:#B7E0F6;" d="M391,166v300c0,24.899-20.099,46-45,46H196V121h150C370.901,121,391,141.099,391,166z"/>
<path style="fill:#3C3A41;" d="M286,451c-24.814,0-45-20.186-45-45s20.186-45,45-45s45,20.186,45,45S310.814,451,286,451z"/>
<g>
	<path style="fill:#57555C;" d="M106,451c-0.234,0-0.483,0-0.718,0C80.468,450.575,60.604,430.067,61,405.282
		c0.41-24.814,20.962-44.927,45.718-44.282h0.015c24.8,0.425,44.663,20.933,44.268,45.718C150.59,431.298,130.463,451,106,451z"/>
	<path style="fill:#57555C;" d="M106,271c-0.234,0-0.483,0-0.718,0C80.468,270.575,60.604,250.067,61,225.282
		c0.41-24.814,20.962-45.527,45.718-44.282h0.015c24.8,0.425,44.663,20.933,44.268,45.718C150.59,251.298,130.463,271,106,271z"/>
	<path style="fill:#57555C;" d="M196.601,271c-0.3,0-0.3,0-0.601,0c-24.901,0-44.7,19.799-45,44.399s19.501,45.3,44.399,45.601
		c0,0,0.3,0,0.601,0c24.6,0,44.7-19.801,45-44.401c0-0.298,0-0.298,0-0.599C241,291.7,221.201,271.3,196.601,271z"/>
</g>
<g>
	<path style="fill:#3C3A41;" d="M286,271c-0.234,0-0.483,0-0.718,0c-24.814-0.425-44.678-20.933-44.282-45.718
		c0.41-24.814,20.024-45.527,45.718-44.282h0.015c24.8,0.425,44.663,20.933,44.268,45.718C330.59,251.298,310.463,271,286,271z"/>
	<path style="fill:#3C3A41;" d="M241,316c0,0.3,0,0.3,0,0.599c-0.3,24.6-20.4,44.401-45,44.401v-90c0.3,0,0.3,0,0.601,0
		C221.201,271.3,241,291.7,241,316z"/>
</g>
<g>
</g>
<g>
</g>
<g>
</g>
<g>
</g>
<g>
</g>
<g>
</g>
<g>
</g>
<g>
</g>
<g>
</g>
<g>
</g>
<g>
</g>
<g>
</g>
<g>
</g>
<g>
</g>
<g>
</g>
</svg>
